<?xml version="1.0" encoding="UTF-8" standalone="no"?>
<!-- Created with Inkscape (http://www.inkscape.org/) -->

<svg
   xmlns:dc="http://purl.org/dc/elements/1.1/"
   xmlns:cc="http://creativecommons.org/ns#"
   xmlns:rdf="http://www.w3.org/1999/02/22-rdf-syntax-ns#"
   xmlns:svg="http://www.w3.org/2000/svg"
   xmlns="http://www.w3.org/2000/svg"
   xmlns:sodipodi="http://sodipodi.sourceforge.net/DTD/sodipodi-0.dtd"
   xmlns:inkscape="http://www.inkscape.org/namespaces/inkscape"
   width="106.78577"
   height="89.973885"
   id="svg3292"
   version="1.1"
   inkscape:version="0.48.4 r9939"
   sodipodi:docname="New document 7">
  <defs
     id="defs3294" />
  <sodipodi:namedview
     id="base"
     pagecolor="#ffffff"
     bordercolor="#666666"
     borderopacity="1.0"
     inkscape:pageopacity="0.0"
     inkscape:pageshadow="2"
     inkscape:zoom="2.3067968"
     inkscape:cx="14.107176"
     inkscape:cy="51.497672"
     inkscape:document-units="px"
     inkscape:current-layer="layer1"
     showgrid="false"
     fit-margin-top="0"
     fit-margin-left="0"
     fit-margin-right="0"
     fit-margin-bottom="0"
     inkscape:window-width="815"
     inkscape:window-height="634"
     inkscape:window-x="334"
     inkscape:window-y="218"
     inkscape:window-maximized="0" />
  <metadata
     id="metadata3297">
    <rdf:RDF>
      <cc:Work
         rdf:about="">
        <dc:format>image/svg+xml</dc:format>
        <dc:type
           rdf:resource="http://purl.org/dc/dcmitype/StillImage" />
        <dc:title></dc:title>
      </cc:Work>
    </rdf:RDF>
  </metadata>
  <g
     inkscape:label="Layer 1"
     inkscape:groupmode="layer"
     id="layer1"
     transform="translate(-360.89282,-275.94667)">
    <g
       transform="matrix(3.9530064,0,0,-3.9530064,426.81386,281.62269)"
       id="g318">
      <path
         inkscape:connector-curvature="0"
         d="m 0,0 c -1.264,0.305 -2.568,0.423 -3.876,0.355 -3.603,-0.188 -6.917,-1.768 -9.331,-4.451 -2.413,-2.68 -3.64,-6.141 -3.45,-9.743 0.126,-2.422 0.968,-4.824 2.432,-6.943 0.244,-0.354 0.636,-0.543 1.034,-0.543 0.247,0 0.495,0.073 0.713,0.223 0.57,0.394 0.712,1.175 0.319,1.745 -1.201,1.74 -1.89,3.692 -1.993,5.649 -0.153,2.933 0.844,5.752 2.81,7.934 1.967,2.183 4.663,3.469 7.596,3.623 1.068,0.056 2.13,-0.04 3.158,-0.289 0.673,-0.163 1.351,0.252 1.514,0.925 C 1.087,-0.841 0.673,-0.162 0,0"
         id="path320"
         style="fill:#9c9a9b;fill-opacity:1;fill-rule:nonzero;stroke:none" />
    </g>
    <g
       transform="matrix(3.9530064,0,0,-3.9530064,464.14762,313.71399)"
       id="g322">
      <path
         inkscape:connector-curvature="0"
         d="m 0,0 c -0.257,0.644 -0.987,0.957 -1.631,0.7 -0.643,-0.258 -0.956,-0.988 -0.699,-1.632 0.399,-0.996 0.627,-2.144 0.699,-3.507 0.125,-2.377 -0.504,-4.677 -1.817,-6.655 -0.383,-0.576 -0.226,-1.354 0.351,-1.739 0.213,-0.142 0.454,-0.21 0.694,-0.21 0.405,0 0.803,0.198 1.046,0.562 1.612,2.427 2.385,5.253 2.231,8.173 C 0.79,-2.665 0.502,-1.257 0,0"
         id="path324"
         style="fill:#9c9a9b;fill-opacity:1;fill-rule:nonzero;stroke:none" />
    </g>
    <g
       transform="matrix(3.9530064,0,0,-3.9530064,460.44918,282.56866)"
       id="g326">
      <path
         inkscape:connector-curvature="0"
         d="M 0,0 C 0.088,0.119 0.154,0.258 0.187,0.411 0.308,0.978 -0.053,1.535 -0.62,1.654 -1.058,1.747 -1.38,1.523 -1.721,1.192 L -14.059,-12.67 c -0.059,-0.059 -0.113,-0.122 -0.166,-0.187 l -0.09,-0.117 c -0.212,-0.295 -0.369,-0.636 -0.45,-1.015 -0.311,-1.451 0.615,-2.878 2.067,-3.185 1.122,-0.235 2.23,0.265 2.819,1.175 L 0,0 z"
         id="path328"
         style="fill:#85ce26;fill-opacity:1;fill-rule:evenodd;stroke:none" />
    </g>
  </g>
</svg>
